<svg width="24" height="24" viewBox="0 0 24 24" fill="none" xmlns="http://www.w3.org/2000/svg">
<path d="M18.766 16.3543C18.7064 16.217 18.6194 16.0938 18.5126 15.9955C18.4059 15.8972 18.2826 15.8269 18.1539 15.7908C18.1428 15.7879 18.1323 15.7811 18.124 15.7715C18.1156 15.7619 18.1099 15.7499 18.1076 15.7374C18.1053 15.7249 18.1066 15.7124 18.1112 15.7018C18.1158 15.6912 18.1236 15.683 18.1333 15.6784L18.9745 15.2862C19.4507 15.0642 19.6416 14.4274 19.3865 13.8511C19.3243 13.7101 19.2391 13.5807 19.136 13.4705C19.0329 13.3603 18.9138 13.2716 18.786 13.2095C18.6581 13.1474 18.5239 13.1132 18.3913 13.1089C18.2588 13.1047 18.1305 13.1305 18.0142 13.1847L16.2553 14.0047L13.533 8.16665L15.275 7.35448C15.7513 7.13246 15.9422 6.49568 15.687 5.91932C15.6248 5.77849 15.5396 5.64926 15.4365 5.53922C15.3333 5.42919 15.2143 5.34057 15.0865 5.27858C14.9587 5.21659 14.8246 5.18249 14.6922 5.17828C14.5597 5.17408 14.4316 5.19984 14.3152 5.25407L13.4573 5.65404C13.4475 5.65857 13.4363 5.65923 13.4252 5.65595C13.4141 5.65267 13.4037 5.64561 13.3956 5.6358C13.3875 5.62599 13.382 5.61393 13.38 5.60138C13.378 5.58883 13.3795 5.57644 13.3844 5.56601C13.4397 5.44407 13.4652 5.30428 13.4585 5.15907C13.4518 5.01386 13.4132 4.86774 13.346 4.7337C13.125 4.29031 12.6452 4.08825 12.2708 4.26277L10.0051 5.31908C9.63072 5.4936 9.47762 5.99208 9.67475 6.44529C9.73431 6.58257 9.82133 6.70582 9.9281 6.80411C10.0349 6.9024 10.1581 6.9727 10.2868 7.00878C10.2984 7.01137 10.3093 7.01806 10.318 7.02783C10.3267 7.03759 10.3327 7.04988 10.3351 7.06281C10.3374 7.07574 10.336 7.08859 10.331 7.09938C10.326 7.11017 10.3178 7.1183 10.3075 7.12253L9.46585 7.5149C9.15942 7.65776 8.97083 7.97335 8.9438 8.33404C9.03531 8.32757 9.12792 8.32427 9.22145 8.32427C10.1145 8.32427 10.9229 8.62498 11.5074 9.11097L12.2279 8.77509L14.9502 14.6132L13.2309 15.4147C13.2502 15.5555 13.2603 15.6999 13.2603 15.8469C13.2603 16.339 13.1477 16.801 12.9504 17.2008C12.9675 17.2214 12.9852 17.2414 13.0034 17.2608C13.1065 17.3709 13.2255 17.4595 13.3533 17.5215C13.4811 17.5834 13.6152 17.6175 13.7477 17.6218C13.8801 17.626 14.0083 17.6002 14.1246 17.546L14.9825 17.146C14.9923 17.1415 15.0035 17.1408 15.0146 17.1441C15.0257 17.1474 15.0361 17.1544 15.0442 17.1642C15.0523 17.1741 15.0578 17.1861 15.0598 17.1987C15.0618 17.2112 15.0603 17.2236 15.0554 17.234C15.0001 17.356 14.9747 17.4958 14.9813 17.641C14.988 17.7862 15.0267 17.9323 15.0938 18.0663C15.3148 18.5097 15.7947 18.7118 16.169 18.5373L18.4352 17.4807C18.8096 17.3062 18.9627 16.8077 18.766 16.3543Z" fill="#3A3A3A"/>
<path fill-rule="evenodd" clip-rule="evenodd" d="M5.85481 10.8317C5.56324 11.663 5.77654 12.5947 6.14484 13.353C5.499 13.9603 5.1 14.7966 5.1 15.7198C5.1 16.942 5.79919 18.0118 6.8446 18.5997H10.5551C11.6005 18.0118 12.2997 16.942 12.2997 15.7198C12.2997 14.7945 11.8989 13.9565 11.2505 13.3488C11.616 12.5639 11.8411 11.6207 11.5434 10.7889C11.171 9.74843 10.1399 9.2401 8.69985 9.2401C7.97461 9.2401 7.35794 9.36998 6.86661 9.64486C6.36141 9.9275 6.02596 10.3438 5.85481 10.8317ZM7.2136 11.3083C7.10788 11.6097 7.15285 12.0745 7.37941 12.5932C7.78825 12.4427 8.2337 12.36 8.69985 12.36C9.16289 12.36 9.60551 12.4416 10.0121 12.5902C10.2487 12.0263 10.2909 11.5625 10.1876 11.274C10.1075 11.0503 9.83969 10.68 8.69985 10.68C8.13515 10.68 7.7821 10.7827 7.56965 10.9015C7.37107 11.0126 7.26866 11.1513 7.2136 11.3083Z" fill="#3A3A3A"/>
<path fill-rule="evenodd" clip-rule="evenodd" d="M24 12C24 18.6274 18.6274 24 12 24C5.37258 24 0 18.6274 0 12C0 5.37258 5.37258 0 12 0C18.6274 0 24 5.37258 24 12ZM22.8 12C22.8 17.9647 17.9647 22.8 12 22.8C6.03532 22.8 1.2 17.9647 1.2 12C1.2 6.03532 6.03532 1.2 12 1.2C17.9647 1.2 22.8 6.03532 22.8 12Z" fill="#3A3A3A"/>
</svg>
