<svg width="80" height="80" viewBox="0 0 80 80" fill="none" xmlns="http://www.w3.org/2000/svg">
<path d="M62.5533 54.5144C62.3548 54.0568 62.0647 53.646 61.7088 53.3183C61.3529 52.9907 60.9422 52.7564 60.513 52.6361C60.4759 52.6262 60.4409 52.6036 60.4132 52.5716C60.3855 52.5395 60.3664 52.4997 60.3587 52.458C60.3511 52.4162 60.3553 52.3746 60.3707 52.3392C60.3861 52.3039 60.4119 52.2766 60.4444 52.2613L63.2483 50.9541C64.8357 50.214 65.472 48.0915 64.6215 46.1702C64.4143 45.7003 64.1304 45.269 63.7867 44.9017C63.4429 44.5344 63.0462 44.2385 62.6199 44.0315C62.1936 43.8246 61.7463 43.7106 61.3045 43.6965C60.8626 43.6823 60.4352 43.7682 60.0472 43.9491L54.1844 46.6824L45.1099 27.2222L50.9168 24.5149C52.5043 23.7749 53.1405 21.6523 52.2901 19.7311C52.0826 19.2616 51.7986 18.8309 51.4548 18.4641C51.1111 18.0973 50.7145 17.8019 50.2884 17.5953C49.8624 17.3886 49.4154 17.275 48.9739 17.2609C48.5324 17.2469 48.1052 17.3328 47.7175 17.5136L44.8577 18.8468C44.8252 18.8619 44.7877 18.8641 44.7507 18.8532C44.7137 18.8422 44.6791 18.8187 44.652 18.786C44.625 18.7533 44.6067 18.7131 44.6 18.6713C44.5933 18.6294 44.5984 18.5881 44.6147 18.5534C44.7991 18.1469 44.8839 17.6809 44.8616 17.1969C44.8393 16.7129 44.7105 16.2258 44.4868 15.779C43.75 14.301 42.1505 13.6275 40.9027 14.2092L33.3502 17.7303C32.1024 18.312 31.5921 19.9736 32.2492 21.4843C32.4477 21.9419 32.7378 22.3527 33.0937 22.6804C33.4496 23.008 33.8603 23.2423 34.2895 23.3626C34.3278 23.3712 34.3644 23.3935 34.3934 23.4261C34.4225 23.4586 34.4425 23.4996 34.4503 23.5427C34.4581 23.5858 34.4533 23.6286 34.4367 23.6646C34.4201 23.7006 34.3925 23.7277 34.3583 23.7418L31.5528 25.0497C30.5314 25.5259 29.9028 26.5778 29.8127 27.7801C30.1177 27.7586 30.4264 27.7476 30.7382 27.7476C33.7151 27.7476 36.4097 28.7499 38.3582 30.3699L40.7597 29.2503L49.8341 48.7105L44.1028 51.3825C44.1673 51.8518 44.2008 52.3329 44.2008 52.823C44.2008 54.4634 43.8256 56.0033 43.1681 57.3359C43.225 57.4045 43.2838 57.4713 43.3446 57.536C43.6883 57.9028 44.0849 58.1982 44.511 58.4049C44.937 58.6115 45.384 58.7252 45.8255 58.7392C46.267 58.7532 46.6942 58.6673 47.0819 58.4865L49.9417 57.1533C49.9742 57.1382 50.0117 57.136 50.0487 57.1469C50.0857 57.1579 50.1203 57.1814 50.1473 57.2141C50.1744 57.2468 50.1927 57.287 50.1994 57.3289C50.2061 57.3707 50.201 57.412 50.1847 57.4468C50.0003 57.8532 49.9155 58.3192 49.9378 58.8032C49.9601 59.2873 50.0889 59.7743 50.3126 60.2211C51.0494 61.6991 52.6489 62.3726 53.8967 61.7909L61.4507 58.2691C62.6985 57.6874 63.2089 56.0258 62.5533 54.5144Z" fill="white"/>
<path fill-rule="evenodd" clip-rule="evenodd" d="M19.516 36.1058C18.5441 38.8768 19.2551 41.9822 20.4828 44.5099C18.33 46.5343 17 49.3219 17 52.3995C17 56.4734 19.3306 60.0393 22.8153 61.9991H35.1837C38.6684 60.0393 40.999 56.4734 40.999 52.3995C40.999 49.3149 39.663 46.5216 37.5015 44.4962C38.7199 41.8797 39.4703 38.7358 38.4779 35.9629C37.2368 32.4948 33.7997 30.8003 28.9995 30.8003C26.582 30.8003 24.5265 31.2333 22.8887 32.1495C21.2047 33.0917 20.0865 34.4792 19.516 36.1058ZM24.0453 37.6944C23.6929 38.6991 23.8428 40.2484 24.598 41.9773C25.9608 41.4756 27.4457 41.1999 28.9995 41.1999C30.543 41.1999 32.0184 41.4719 33.3737 41.9673C34.1624 40.0878 34.3029 38.5416 33.9588 37.5802C33.6918 36.8342 32.799 35.6001 28.9995 35.6001C27.1172 35.6001 25.9403 35.9422 25.2322 36.3384C24.5702 36.7087 24.2289 37.1711 24.0453 37.6944Z" fill="white"/>
<path fill-rule="evenodd" clip-rule="evenodd" d="M80 40C80 62.0914 62.0914 80 40 80C17.9086 80 0 62.0914 0 40C0 17.9086 17.9086 0 40 0C62.0914 0 80 17.9086 80 40ZM76 40C76 59.8823 59.8823 76 40 76C20.1177 76 4 59.8823 4 40C4 20.1177 20.1177 4 40 4C59.8823 4 76 20.1177 76 40Z" fill="white"/>
</svg>
